<?xml version="1.0" encoding="UTF-8"?><svg id="Layer_1" xmlns="http://www.w3.org/2000/svg" viewBox="0 0 127 52"><defs><style>.cls-1{fill:#ed0018;}.cls-2{fill:#fff;}.cls-3{fill:#ffcc20;}.cls-4{fill:#0a1ce8;}</style></defs><circle class="cls-1" cx="101" cy="26" r="26"/><path class="cls-2" d="m92.81,38.24V13.76h8.68c1.82,0,3.42.34,4.79,1.03,1.37.68,2.43,1.64,3.19,2.88.76,1.24,1.13,2.68,1.13,4.34,0,1.42-.29,2.68-.86,3.78-.58,1.1-1.36,2-2.34,2.7.96,1.61,1.93,3.23,2.9,4.88.97,1.64,1.94,3.27,2.9,4.88h-7.06c-.74-1.34-1.49-2.71-2.25-4.1-.76-1.39-1.52-2.76-2.29-4.1h-2.48v8.21h-6.3Zm8.68-18.79h-2.38v5.33h2.74c.72,0,1.31-.26,1.76-.77.46-.52.68-1.15.68-1.89s-.25-1.4-.74-1.91-1.18-.76-2.07-.76Z"/><circle class="cls-3" cx="63" cy="26" r="26"/><path class="cls-2" d="m55.66,38.24V13.76h14.69v5.62h-8.39v3.56h7.67v5.44h-7.67v4.25h8.39v5.62h-14.69Z"/><circle class="cls-4" cx="26" cy="26" r="26"/><path class="cls-2" d="m18.66,38.24V13.76h14.69v5.69h-8.39v4.28h7.67v5.44h-7.67v9.07h-6.3Z"/></svg>